<?xml version="1.0" encoding="UTF-8"?>
<svg xmlns="http://www.w3.org/2000/svg" xmlns:xlink="http://www.w3.org/1999/xlink" width="40px" height="px" viewBox="0 0 40 30" version="1.1">
<g id="surface1">
<rect x="0" y="0" width="40" height="30" style="fill:rgb(0.392157%,12.941177%,41.176471%);fill-opacity:1;stroke:none;"/>
<path style=" stroke:none;fill-rule:nonzero;fill:rgb(100%,100%,100%);fill-opacity:1;" d="M 4.6875 0 L 19.9375 11.3125 L 35.125 0 L 40 0 L 40 3.875 L 25 15.0625 L 40 26.1875 L 40 30 L 35 30 L 20 18.8125 L 5.0625 30 L 0 30 L 0 26.25 L 14.9375 15.125 L 0 4 L 0 0 Z M 4.6875 0 "/>
<path style=" stroke:none;fill-rule:nonzero;fill:rgb(78.431374%,6.27451%,18.039216%);fill-opacity:1;" d="M 26.5 17.5625 L 40 27.5 L 40 30 L 23.0625 17.5625 Z M 15 18.8125 L 15.375 21 L 3.375 30 L 0 30 Z M 40 0 L 40 0.1875 L 24.4375 11.9375 L 24.5625 9.1875 L 36.875 0 Z M 0 0 L 14.9375 11 L 11.1875 11 L 0 2.625 Z M 0 0 "/>
<path style=" stroke:none;fill-rule:nonzero;fill:rgb(100%,100%,100%);fill-opacity:1;" d="M 15.0625 0 L 15.0625 30 L 25.0625 30 L 25.0625 0 Z M 0 10 L 0 20 L 40 20 L 40 10 Z M 0 10 "/>
<path style=" stroke:none;fill-rule:nonzero;fill:rgb(78.431374%,6.27451%,18.039216%);fill-opacity:1;" d="M 0 12.0625 L 0 18.0625 L 40 18.0625 L 40 12.0625 Z M 17.0625 0 L 17.0625 30 L 23.0625 30 L 23.0625 0 Z M 17.0625 0 "/>
</g>
</svg>
